<?xml version="1.0" encoding="utf-8"?><svg xmlns="http://www.w3.org/2000/svg" xmlns:xlink="http://www.w3.org/1999/xlink" width="200px" height="200px" viewBox="0 0 100 100" preserveAspectRatio="xMidYMid" style="display:block;animation-play-state:paused" ><g transform="rotate(0 50 50)" style="animation-play-state:paused" ><rect x="47" y="24" rx="3" ry="6" width="6" height="12" fill="#ffffff" opacity="0.083" style="opacity:0.083;animation-play-state:paused" ></rect></g>
<g transform="rotate(30 50 50)" style="animation-play-state:paused" ><rect x="47" y="24" rx="3" ry="6" width="6" height="12" fill="#ffffff" opacity="0.167" style="opacity:0.167;animation-play-state:paused" ></rect></g>
<g transform="rotate(60 50 50)" style="animation-play-state:paused" ><rect x="47" y="24" rx="3" ry="6" width="6" height="12" fill="#ffffff" opacity="0.25" style="opacity:0.25;animation-play-state:paused" ></rect></g>
<g transform="rotate(90 50 50)" style="animation-play-state:paused" ><rect x="47" y="24" rx="3" ry="6" width="6" height="12" fill="#ffffff" opacity="0.333" style="opacity:0.333;animation-play-state:paused" ></rect></g>
<g transform="rotate(120 50 50)" style="animation-play-state:paused" ><rect x="47" y="24" rx="3" ry="6" width="6" height="12" fill="#ffffff" opacity="0.417" style="opacity:0.417;animation-play-state:paused" ></rect></g>
<g transform="rotate(150 50 50)" style="animation-play-state:paused" ><rect x="47" y="24" rx="3" ry="6" width="6" height="12" fill="#ffffff" opacity="0.5" style="opacity:0.5;animation-play-state:paused" ></rect></g>
<g transform="rotate(180 50 50)" style="animation-play-state:paused" ><rect x="47" y="24" rx="3" ry="6" width="6" height="12" fill="#ffffff" opacity="0.583" style="opacity:0.583;animation-play-state:paused" ></rect></g>
<g transform="rotate(210 50 50)" style="animation-play-state:paused" ><rect x="47" y="24" rx="3" ry="6" width="6" height="12" fill="#ffffff" opacity="0.667" style="opacity:0.667;animation-play-state:paused" ></rect></g>
<g transform="rotate(240 50 50)" style="animation-play-state:paused" ><rect x="47" y="24" rx="3" ry="6" width="6" height="12" fill="#ffffff" opacity="0.75" style="opacity:0.75;animation-play-state:paused" ></rect></g>
<g transform="rotate(270 50 50)" style="animation-play-state:paused" ><rect x="47" y="24" rx="3" ry="6" width="6" height="12" fill="#ffffff" opacity="0.833" style="opacity:0.833;animation-play-state:paused" ></rect></g>
<g transform="rotate(300 50 50)" style="animation-play-state:paused" ><rect x="47" y="24" rx="3" ry="6" width="6" height="12" fill="#ffffff" opacity="0.917" style="opacity:0.917;animation-play-state:paused" ></rect></g>
<g transform="rotate(330 50 50)" style="animation-play-state:paused" ><rect x="47" y="24" rx="3" ry="6" width="6" height="12" fill="#ffffff" opacity="1" style="animation-play-state:paused" ></rect></g><!-- generated by https://loading.io/ --></svg>